<?xml version="1.0" encoding="UTF-8"?><svg id="Layer_1" xmlns="http://www.w3.org/2000/svg" xmlns:xlink="http://www.w3.org/1999/xlink" viewBox="0 0 1080 1920"><defs><style>.cls-1{fill:none;}.cls-2{clip-path:url(#clippath);}.cls-3{fill:#fff;}.cls-4{fill:#8e99a2;}.cls-5{fill:#c7f1ff;}.cls-6{clip-path:url(#clippath-1);}.cls-7{clip-path:url(#clippath-4);}.cls-8{clip-path:url(#clippath-3);}.cls-9{clip-path:url(#clippath-2);}.cls-10{clip-path:url(#clippath-7);}.cls-11{clip-path:url(#clippath-8);}.cls-12{clip-path:url(#clippath-6);}.cls-13{clip-path:url(#clippath-5);}.cls-14{clip-path:url(#clippath-9);}.cls-15{clip-path:url(#clippath-14);}.cls-16{clip-path:url(#clippath-13);}.cls-17{clip-path:url(#clippath-12);}.cls-18{clip-path:url(#clippath-10);}.cls-19{clip-path:url(#clippath-15);}.cls-20{clip-path:url(#clippath-11);}</style><clipPath id="clippath"><rect class="cls-1" x="588.16" y="0" width="383.3" height="251.19"/></clipPath><clipPath id="clippath-1"><rect class="cls-1" x="271.57" y="253.78" width="119.84" height="119.84"/></clipPath><clipPath id="clippath-2"><rect class="cls-1" y="0" width="192" height="338.67"/></clipPath><clipPath id="clippath-3"><rect class="cls-1" x="-282.9" y="-136.8" width="393" height="393" transform="translate(-67.52 -43.61) rotate(-45)"/></clipPath><clipPath id="clippath-4"><rect class="cls-1" x="139.68" y="1764.73" width="383.3" height="155.27"/></clipPath><clipPath id="clippath-5"><rect class="cls-1" y="1678.53" width="66.55" height="119.84"/></clipPath><clipPath id="clippath-6"><rect class="cls-1" x="1020.3" y="313.7" width="59.7" height="119.84"/></clipPath><clipPath id="clippath-7"><rect class="cls-1" x="802.67" y="1677.33" width="277.33" height="242.67"/></clipPath><clipPath id="clippath-8"><rect class="cls-1" x="885.31" y="1760.03" width="393" height="393" transform="translate(-1066.62 1337.99) rotate(-45)"/></clipPath><clipPath id="clippath-9"><rect class="cls-1" x="650.46" y="1752.3" width="119.84" height="119.84"/></clipPath><clipPath id="clippath-10"><rect class="cls-1" y="960" width="474.67" height="556"/></clipPath><clipPath id="clippath-11"><rect class="cls-1" x="-.5" y="1041.5" width="393" height="393" transform="translate(-817.99 501.2) rotate(-45)"/></clipPath><clipPath id="clippath-12"><rect class="cls-1" x="734.67" y="450.67" width="345.33" height="474.67"/></clipPath><clipPath id="clippath-13"><rect class="cls-1" x="775.44" y="491.47" width="393" height="393" transform="translate(76.46 1472.87) rotate(-76.53)"/></clipPath><clipPath id="clippath-14"><rect class="cls-1" x="60.24" y="547.51" width="119.76" height="119.84"/></clipPath><clipPath id="clippath-15"><rect class="cls-1" x="792.18" y="1115.32" width="119.82" height="119.84"/></clipPath></defs><g class="cls-2"><path class="cls-4" d="M779.81,251.19c-51.17,0-99.35-19.91-135.51-56.15-36.23-36.16-56.15-84.33-56.15-135.51s19.91-99.35,56.15-135.5c36.15-36.23,84.33-56.15,135.51-56.15s99.35,19.92,135.5,56.15c36.23,36.23,56.15,84.33,56.15,135.5s-19.92,99.35-56.15,135.51c-36.15,36.23-84.33,56.15-135.5,56.15m0-371.81c-48.11,0-93.38,18.77-127.39,52.78s-52.78,79.28-52.78,127.38,18.77,93.38,52.78,127.39,79.28,52.78,127.39,52.78,93.37-18.77,127.38-52.78,52.78-79.28,52.78-127.39-18.77-93.37-52.78-127.38-79.28-52.78-127.38-52.78"/></g><g class="cls-6"><path class="cls-5" d="M331.44,373.62c-32.97,0-59.88-26.91-59.88-59.96s26.91-59.88,59.88-59.88,59.88,26.91,59.88,59.88c.09,33.06-26.82,59.96-59.88,59.96Zm0-86.87c-14.79,0-26.91,12.11-26.91,26.91s12.11,26.91,26.91,26.91,26.91-12.11,26.91-26.91-12.03-26.91-26.91-26.91Z"/></g><g class="cls-9"><g class="cls-8"><path class="cls-3" d="M-364.29,59.7L-86.4,337.59,191.49,59.7-86.4-218.2-364.29,59.7m538.08,0L-86.58,320.07-346.96,59.7-86.58-200.68,173.79,59.7"/></g></g><g class="cls-7"><path class="cls-4" d="M331.33,2148.03c-51.17,0-99.35-19.92-135.51-56.15-36.23-36.16-56.15-84.33-56.15-135.51s19.91-99.35,56.15-135.5c36.16-36.23,84.33-56.15,135.51-56.15s99.35,19.92,135.5,56.15c36.23,36.23,56.15,84.33,56.15,135.5s-19.92,99.35-56.15,135.51c-36.15,36.23-84.33,56.15-135.5,56.15m0-371.81c-48.1,0-93.38,18.77-127.39,52.78-34.01,34.01-52.78,79.28-52.78,127.39s18.77,93.38,52.78,127.39,79.28,52.78,127.39,52.78,93.38-18.77,127.38-52.78c34.01-34.01,52.78-79.28,52.78-127.39s-18.77-93.38-52.78-127.39-79.28-52.78-127.38-52.78"/></g><g class="cls-13"><path class="cls-5" d="M6.58,1798.37c-32.97,0-59.88-26.91-59.88-59.96s26.91-59.88,59.88-59.88,59.88,26.91,59.88,59.88c.09,33.05-26.82,59.96-59.88,59.96Zm0-86.88c-14.79,0-26.91,12.12-26.91,26.91s12.11,26.91,26.91,26.91,26.91-12.12,26.91-26.91-12.03-26.91-26.91-26.91Z"/></g><g class="cls-12"><path class="cls-5" d="M1080.18,433.54c-32.97,0-59.88-26.91-59.88-59.96s26.91-59.88,59.88-59.88,59.88,26.91,59.88,59.88c.09,33.06-26.82,59.96-59.88,59.96Zm0-86.87c-14.79,0-26.91,12.11-26.91,26.91s12.11,26.91,26.91,26.91,26.91-12.11,26.91-26.91-12.03-26.91-26.91-26.91Z"/></g><g class="cls-10"><g class="cls-11"><path class="cls-3" d="M803.91,1956.53l277.9,277.9,277.89-277.9-277.89-277.89-277.9,277.89m538.08,0l-260.38,260.38-260.37-260.38,260.37-260.38,260.38,260.38"/></g></g><g class="cls-14"><path class="cls-5" d="M710.33,1872.14c-32.97,0-59.88-26.91-59.88-59.96s26.91-59.88,59.88-59.88,59.87,26.91,59.87,59.88c.09,33.06-26.82,59.96-59.87,59.96Zm0-86.87c-14.79,0-26.91,12.11-26.91,26.91s12.12,26.91,26.91,26.91,26.91-12.11,26.91-26.91-12.03-26.91-26.91-26.91Z"/></g><g class="cls-18"><g class="cls-20"><path class="cls-3" d="M-81.89,1238.01l277.9,277.89,277.89-277.89L196.01,960.11-81.89,1238.01m538.08,0l-260.38,260.38L-64.56,1238.01,195.82,977.63l260.38,260.38"/></g></g><g class="cls-17"><g class="cls-16"><path class="cls-3" d="M826.63,451.09l-91.56,382.18,382.18,91.56,91.56-382.18-382.18-91.56m281.36,458.66l-358.09-85.79,85.79-358.09,358.09,85.79-85.79,358.09"/></g></g><g class="cls-15"><path class="cls-5" d="M120.11,667.34c-32.96,0-59.87-26.91-59.87-59.96s26.91-59.88,59.87-59.88,59.88,26.91,59.88,59.88c.09,33.06-26.82,59.96-59.88,59.96Zm0-86.87c-14.79,0-26.91,12.11-26.91,26.91s12.12,26.91,26.91,26.91,26.91-12.11,26.91-26.91-12.03-26.91-26.91-26.91Z"/></g><g class="cls-19"><path class="cls-5" d="M852.06,1235.16c-32.96,0-59.88-26.91-59.88-59.97s26.91-59.87,59.88-59.87,59.88,26.91,59.88,59.87c.09,33.06-26.82,59.97-59.88,59.97Zm0-86.88c-14.79,0-26.91,12.12-26.91,26.91s12.11,26.91,26.91,26.91,26.91-12.12,26.91-26.91-12.03-26.91-26.91-26.91Z"/></g></svg>