<?xml version="1.0" encoding="utf-8"?>
<!-- Generator: Adobe Illustrator 26.3.1, SVG Export Plug-In . SVG Version: 6.00 Build 0)  -->
<svg version="1.1" id="Layer_1" xmlns="http://www.w3.org/2000/svg" xmlns:xlink="http://www.w3.org/1999/xlink" x="0px" y="0px"
	 viewBox="0 0 1080 1920" style="enable-background:new 0 0 1080 1920;" xml:space="preserve">
<style type="text/css">
	.st0{clip-path:url(#SVGID_00000150799233656605321160000012669313238968406462_);}
	.st1{fill:#A765C5;}
	.st2{fill:#FFFFFF;}
	.st3{clip-path:url(#SVGID_00000178911133916120253820000006526561882596683908_);}
	.st4{clip-path:url(#SVGID_00000037651886505820154820000012200382843355623842_);}
	.st5{clip-path:url(#SVGID_00000005962496057142126440000002607975388664995714_);}
	.st6{clip-path:url(#SVGID_00000119094404879780454390000009798095528263635378_);}
	.st7{clip-path:url(#SVGID_00000157298653227020596740000005142349826402686092_);}
	.st8{clip-path:url(#SVGID_00000074425857927805817570000001167579935985988234_);}
	.st9{clip-path:url(#SVGID_00000106125157020882857940000008305474506017583260_);}
	.st10{clip-path:url(#SVGID_00000175311110651196682920000006486350581940954042_);}
	.st11{clip-path:url(#SVGID_00000085217913176539318060000013822156574769161897_);}
	.st12{clip-path:url(#SVGID_00000169541503289828699510000013686213574711713177_);}
	.st13{clip-path:url(#SVGID_00000152980210701219488110000000694801890966578564_);}
	.st14{clip-path:url(#SVGID_00000158005758825627354660000014019765621539782796_);}
	.st15{clip-path:url(#SVGID_00000176012079604359217850000001483861489932453799_);}
	.st16{clip-path:url(#SVGID_00000062160522524977422090000008697663401908700565_);}
	.st17{clip-path:url(#SVGID_00000052100024794600845510000007219663326605617339_);}
	.st18{clip-path:url(#SVGID_00000109751030798164252960000000784174002474185612_);}
	.st19{clip-path:url(#SVGID_00000133492404829728217870000011386321673405031853_);}
	.st20{clip-path:url(#SVGID_00000142176283975928875750000008760289092357344673_);}
	.st21{clip-path:url(#SVGID_00000022531225956689457120000016123297866203331487_);}
</style>
<g>
	<defs>
		<rect id="SVGID_1_" x="698.7" y="110.7" width="381.3" height="262.7"/>
	</defs>
	<clipPath id="SVGID_00000011718614899881805210000003621607666645535414_">
		<use xlink:href="#SVGID_1_"  style="overflow:visible;"/>
	</clipPath>
	<g style="clip-path:url(#SVGID_00000011718614899881805210000003621607666645535414_);">
		<path class="st1" d="M997.1,171.2c-40.9,43.8-101.5,87.3-178.9,61.2c-72.3-24.5-119.5,32-119.5,32v107.7c0,0,44.4-51,116.5-26.5
			c77.4,26.1,144.6-3.2,187.8-45.2c63.4-61.8,164.9-54.1,164.9-54.1V110.9C1167.9,110.9,1055.5,108.3,997.1,171.2z"/>
	</g>
</g>
<path class="st2" d="M1183.7,152.6l-2-0.2c-23.1,0.2-46.2,2.8-68.7,7.7c-42.3,9.5-75.4,25.7-97.8,48.4
	c-40.5,40.9-82.9,61.6-125.6,61.6c-15,0-29.8-2.4-44-7.1c-11.8-3.8-23.9-5.7-36.3-5.7c-51,0-82.6,34.4-83.9,35.8l-1,1.2v109.4
	l7.1-7.5c19.7-18.4,45.6-28.8,72.7-28.8c12.4,0,24.5,2,36.3,5.9c18.8,6.1,38.3,9.1,57.9,9.1c46.4,0,91.8-18.2,128-51
	c47.8-43.7,118.5-48.4,146.9-48.4c6.3,0,10.1,0.2,10.1,0.2l4.3,0.2V152.6H1183.7z M1098.8,288.9c0-1-0.8-1.8-1.8-1.8
	c-1,0-1.8,0.8-1.8,1.8c0,0.4,0,0.6,0.2,0.8c-24.5,7.3-50.4,19-71.7,38.5c-3.8,3.4-7.9,6.9-12.2,10.1c-0.2-0.6-1-1.2-1.8-1.2
	c-1,0-1.8,0.8-1.8,1.8c0,0.6,0.2,1,0.6,1.4c-29.4,21.9-67,37.5-110.2,37.5c-19.2,0-38.5-3-56.7-8.9c-12.2-3.8-24.7-6.1-37.5-6.1
	c-13.6,0-26.9,2.4-39.3,7.3c-0.4-0.6-1-1-1.6-1c-1,0-1.8,0.8-1.8,1.8v0.4c-12,5.1-23.1,12.4-32.8,21.5v-97c0,0,31-34.4,80.8-34.4
	c12,0,23.7,1.8,35,5.5c14.6,4.7,29.8,7.1,45.2,7.1h1.4v0.2c0,1,0.8,1.8,1.8,1.8c1,0,1.8-0.8,1.8-1.8v-0.2
	c51.5-1.8,93.2-32.2,123.4-62.8c52.3-52.7,148.9-54.7,163.9-54.7h2v120.7c-1,0-1.8,0.8-1.8,1.8c-1.8,0-4.7-0.2-8.5-0.2
	C1158.6,279,1129.8,280.4,1098.8,288.9z M734.2,304.1c-1,0-1.8-0.8-1.8-1.8c0-1,0.8-1.8,1.8-1.8c1,0,1.8,0.8,1.8,1.8
	C736,303.3,735.2,304.1,734.2,304.1z M748.2,343.2c0,1-0.8,1.8-1.8,1.8c-1,0-1.8-0.8-1.8-1.8c0-1,0.8-1.8,1.8-1.8
	C747.3,341.2,748.2,342,748.2,343.2z M783.8,341.2c0,1-0.8,1.8-1.8,1.8c-1,0-1.8-0.8-1.8-1.8c0-1,0.8-1.8,1.8-1.8
	C783,339.3,783.8,340.2,783.8,341.2z M766.8,303.9c0,1-0.8,1.8-1.8,1.8c-1,0-1.8-0.8-1.8-1.8c0-1,0.8-1.8,1.8-1.8
	C766,302.1,766.8,302.9,766.8,303.9z M785.6,269.1c0,1-0.8,1.8-1.8,1.8c-1,0-1.8-0.8-1.8-1.8c0-1,0.8-1.8,1.8-1.8
	C784.8,267,785.6,268.1,785.6,269.1z M808.3,308.2c0,1-0.8,1.8-1.8,1.8c-1,0-1.8-0.8-1.8-1.8c0-1,0.8-1.8,1.8-1.8
	C807.5,306.3,808.3,307.1,808.3,308.2z M825.1,274.9c0,1-0.8,1.8-1.8,1.8c-1,0-1.8-0.8-1.8-1.8c0-1,0.8-1.8,1.8-1.8
	C824.3,273.1,825.1,273.9,825.1,274.9z M862.4,302.1c-1,0-1.8-0.8-1.8-1.8c0-1,0.8-1.8,1.8-1.8c1,0,1.8,0.8,1.8,1.8
	C864.2,301.3,863.6,302.1,862.4,302.1z M821.5,359.2c0,1-0.8,1.8-1.8,1.8c-1,0-1.8-0.8-1.8-1.8c0-1,0.8-1.8,1.8-1.8
	C820.7,357.4,821.5,358.2,821.5,359.2z M839.9,332.7c0,1-0.8,1.8-1.8,1.8c-1,0-1.8-0.8-1.8-1.8c0-1,0.8-1.8,1.8-1.8
	C838.9,330.8,839.9,331.6,839.9,332.7z M738,382.7c0,1-0.8,1.8-1.8,1.8c-1,0-1.8-0.8-1.8-1.8c0-1,0.8-1.8,1.8-1.8
	C737,380.9,738,381.7,738,382.7z M866.3,357.2c0,1-0.8,1.8-1.8,1.8c-1,0-1.8-0.8-1.8-1.8c0-1,0.8-1.8,1.8-1.8
	C865.4,355.3,866.3,356.2,866.3,357.2z M894.6,373.2c0,1-0.8,1.8-1.8,1.8c-1,0-1.8-0.8-1.8-1.8c0-1,0.8-1.8,1.8-1.8
	C893.8,371.3,894.6,372.2,894.6,373.2z M926.4,296.4c0,1-0.8,1.8-1.8,1.8c-1,0-1.8-0.8-1.8-1.8c0-1,0.8-1.8,1.8-1.8
	C925.6,294.6,926.4,295.4,926.4,296.4z M890.8,318.7c-1,0-1.8-0.8-1.8-1.8c0-1,0.8-1.8,1.8-1.8c1,0,1.8,0.8,1.8,1.8
	C892.8,317.9,891.8,318.7,890.8,318.7z M943.2,269.1c0,1-0.8,1.8-1.8,1.8c-1,0-1.8-0.8-1.8-1.8c0-1,0.8-1.8,1.8-1.8
	C942.4,267,943.2,268.1,943.2,269.1z M941.4,328.8c0,1-0.8,1.8-1.8,1.8c-1,0-1.8-0.8-1.8-1.8c0-1,0.8-1.8,1.8-1.8
	C940.6,327,941.4,327.8,941.4,328.8z M978.1,298.2c-1,0-1.8-0.8-1.8-1.8c0-1,0.8-1.8,1.8-1.8c1,0,1.8,0.8,1.8,1.8
	C979.9,297.4,979.1,298.2,978.1,298.2z M990,256.7c0,1-0.8,1.8-1.8,1.8c-1,0-1.8-0.8-1.8-1.8c0-1,0.8-1.8,1.8-1.8
	C989.2,254.9,990,255.5,990,256.7z M924.4,357.2c0,1-0.8,1.8-1.8,1.8c-1,0-1.8-0.8-1.8-1.8c0-1,0.8-1.8,1.8-1.8
	C923.6,355.3,924.4,356.2,924.4,357.2z M967.7,360.2c0,1-0.8,1.8-1.8,1.8c-1,0-1.8-0.8-1.8-1.8c0-1,0.8-1.8,1.8-1.8
	C966.9,358.4,967.7,359.2,967.7,360.2z M981.9,330.8c0,1-0.8,1.8-1.8,1.8c-1,0-1.8-0.8-1.8-1.8c0-1,0.8-1.8,1.8-1.8
	C981.1,328.8,981.9,329.8,981.9,330.8z M1013.5,232c0,1-0.8,1.8-1.8,1.8c-1,0-1.8-0.8-1.8-1.8c0-1,0.8-1.8,1.8-1.8
	C1012.7,230.2,1013.5,231,1013.5,232z M1027.5,256.7c0,1-0.8,1.8-1.8,1.8s-1.8-0.8-1.8-1.8c0-1,0.8-1.8,1.8-1.8
	C1026.7,254.7,1027.5,255.5,1027.5,256.7z M1082,267c0,1-0.8,1.8-1.8,1.8c-1,0-1.8-0.8-1.8-1.8c0-1,0.8-1.8,1.8-1.8
	C1081.2,265.2,1082,266,1082,267z M1044.3,196.4c0,1-0.8,1.8-1.8,1.8c-1,0-1.8-0.8-1.8-1.8c0-1,0.8-1.8,1.8-1.8
	C1043.5,194.5,1044.3,195.3,1044.3,196.4z M1139.9,171c0,1-0.8,1.8-1.8,1.8c-1,0-1.8-0.8-1.8-1.8c0-1,0.8-1.8,1.8-1.8
	C1139.1,169.2,1139.9,170,1139.9,171z M1067,236.3c0,1-0.8,1.8-1.8,1.8c-1,0-1.8-0.8-1.8-1.8c0-1,0.8-1.8,1.8-1.8
	C1066.2,234.4,1067,235.2,1067,236.3z M1089.5,202.2c0,1-0.8,1.8-1.8,1.8c-1,0-1.8-0.8-1.8-1.8c0-1,0.8-1.8,1.8-1.8
	C1088.7,200.4,1089.5,201.2,1089.5,202.2z M1121.1,211.8c0,1-0.8,1.8-1.8,1.8c-1,0-1.8-0.8-1.8-1.8c0-1,0.8-1.8,1.8-1.8
	C1120.3,209.9,1121.1,210.7,1121.1,211.8z M1023.7,296.4c0,1-0.8,1.8-1.8,1.8c-1,0-1.8-0.8-1.8-1.8c0-1,0.8-1.8,1.8-1.8
	C1022.8,294.6,1023.7,295.4,1023.7,296.4z M1117.2,262.6c0,1-0.8,1.8-1.8,1.8c-1,0-1.8-0.8-1.8-1.8c0-1,0.8-1.8,1.8-1.8
	C1116.4,260.8,1117.2,261.6,1117.2,262.6z M1157.3,270.9c0,1-0.8,1.8-1.8,1.8c-1,0-1.8-0.8-1.8-1.8c0-1,0.8-1.8,1.8-1.8
	C1156.5,269.1,1157.3,269.9,1157.3,270.9z M1057.5,300.3c0,1-0.8,1.8-1.8,1.8c-1,0-1.8-0.8-1.8-1.8c0-1,0.8-1.8,1.8-1.8
	C1056.7,298.4,1057.5,299.2,1057.5,300.3z M1111.2,167.4c0,1-0.8,1.8-1.8,1.8c-1,0-1.8-0.8-1.8-1.8c0-1,0.8-1.8,1.8-1.8
	C1110.3,165.4,1111.2,166.2,1111.2,167.4z M1170.1,246.6c0,1-0.8,1.8-1.8,1.8c-1,0-1.8-0.8-1.8-1.8c0-1,0.8-1.8,1.8-1.8
	C1169.3,244.8,1170.1,245.6,1170.1,246.6z M1180.8,165.4c0,1-0.8,1.8-1.8,1.8c-1,0-1.8-0.8-1.8-1.8c0-1,0.8-1.8,1.8-1.8
	C1180,163.5,1180.8,164.4,1180.8,165.4z M1171.9,204.1c0,1-0.8,1.8-1.8,1.8c-1,0-1.8-0.8-1.8-1.8c0-1,0.8-1.8,1.8-1.8
	C1171.1,202.2,1171.9,203,1171.9,204.1z"/>
<g>
	<defs>
		<rect id="SVGID_00000109022056994180045330000000047233298820650126_" y="1757.8" width="304" height="63"/>
	</defs>
	<clipPath id="SVGID_00000082358453973528648990000004310555918770006445_">
		<use xlink:href="#SVGID_00000109022056994180045330000000047233298820650126_"  style="overflow:visible;"/>
	</clipPath>
	<g style="clip-path:url(#SVGID_00000082358453973528648990000004310555918770006445_);">
		<path class="st1" d="M303.7,1820.8c-23.2,0-31.3-14.6-36.7-24.3c-4.5-8.3-6.8-12.4-16.8-12.6c-6.6,0.3-8.3,2.7-12.8,10.9
			c-5.7,10.4-14.4,26-40.8,26c-23.2,0-31.4-14.6-36.7-24.3c-4.7-8.3-6.8-12.4-16.8-12.6c-6.6,0.3-8.3,2.7-12.8,10.9
			c-5.7,10.4-14.4,26-40.8,26c-23.2,0-31.4-14.6-36.7-24.3c-4.7-8.3-6.9-12.4-16.7-12.6c-6.6,0.3-8.3,2.7-12.9,10.9
			c-5.7,10.4-14.4,26-40.8,26c-23.2,0-31.4-14.6-36.7-24.3c-4.5-8.3-6.8-12.2-16.7-12.6c-6.6,0.3-8.3,2.7-12.9,10.9
			c-5.7,10.4-14.4,26-40.8,26v-26c11.2,0,13.2-3.9,18.2-12.6c4.9-9,12.2-22.1,31.7-24.1c0.6-0.3,1.6-0.3,2.5-0.3h2.6
			c0.6,0,1.4,0,2.1,0.1c22.6,1.8,30.6,16.1,36,25.9c4.8,8.7,6.4,10.9,14,10.9c11,0,13.2-3.9,18-12.6c4.9-9,12.2-22.1,31.7-24.1
			c0.9-0.1,1.7-0.3,2.6-0.3h2.6c0.6,0,1.4,0,2.1,0.1c22.7,1.7,30.6,16.1,36.1,25.9c4.8,8.7,6.4,10.9,14,10.9
			c11.2,0,13.2-3.9,18-12.6c4.9-9,12.2-22.1,31.7-24.1c0.9-0.1,1.7-0.3,2.6-0.3h2.5c0.6,0,1.4,0,2.1,0.1
			c22.7,1.7,30.6,16.1,36.1,25.9c4.8,8.7,6.4,10.9,14,10.9c11,0,13.2-3.9,18-12.6c4.9-9,12.3-22.1,31.7-24.1
			c0.8-0.1,1.7-0.3,2.6-0.3h2.6c0.6,0,1.4,0,2.1,0.1c23,1.8,30.9,16.1,36.3,25.9c4.8,8.7,6.4,10.9,14,10.9V1820.8z"/>
	</g>
</g>
<g>
	<defs>
		<rect id="SVGID_00000149367758749002732760000011972588541389735824_" x="302" y="593.2" width="670" height="689"/>
	</defs>
	<clipPath id="SVGID_00000170243411626648019630000016249488765011770274_">
		<use xlink:href="#SVGID_00000149367758749002732760000011972588541389735824_"  style="overflow:visible;"/>
	</clipPath>
	<g style="clip-path:url(#SVGID_00000170243411626648019630000016249488765011770274_);">
		<path class="st1" d="M302,593.2h670v689H302V593.2"/>
	</g>
</g>
<g>
	<defs>
		<rect id="SVGID_00000025407292853127955720000018026443006961529278_" x="1021.3" y="537.2" width="4" height="801"/>
	</defs>
	<clipPath id="SVGID_00000013170559925738655270000017597591507217926328_">
		<use xlink:href="#SVGID_00000025407292853127955720000018026443006961529278_"  style="overflow:visible;"/>
	</clipPath>
	<g style="clip-path:url(#SVGID_00000013170559925738655270000017597591507217926328_);">
		<path class="st2" d="M1021.4,537.2h2.7v801h-2.7V537.2z"/>
	</g>
</g>
<g>
	<defs>
		<rect id="SVGID_00000110432060024284244710000010128670750222495660_" x="906.7" y="537.2" width="4" height="801"/>
	</defs>
	<clipPath id="SVGID_00000048462256206152118180000004718350160194238375_">
		<use xlink:href="#SVGID_00000110432060024284244710000010128670750222495660_"  style="overflow:visible;"/>
	</clipPath>
	<g style="clip-path:url(#SVGID_00000048462256206152118180000004718350160194238375_);">
		<path class="st2" d="M906.9,537.2h2.7v801h-2.7V537.2z"/>
	</g>
</g>
<g>
	<defs>
		<rect id="SVGID_00000167395635146755166160000012784254538634618507_" x="792" y="537.2" width="4" height="801"/>
	</defs>
	<clipPath id="SVGID_00000147186252991462595520000009041142553072632484_">
		<use xlink:href="#SVGID_00000167395635146755166160000012784254538634618507_"  style="overflow:visible;"/>
	</clipPath>
	<g style="clip-path:url(#SVGID_00000147186252991462595520000009041142553072632484_);">
		<path class="st2" d="M792.6,537.2h2.7v801h-2.7V537.2z"/>
	</g>
</g>
<g>
	<defs>
		<rect id="SVGID_00000065769409403018699320000016907765859852532872_" x="677.3" y="537.2" width="4" height="801"/>
	</defs>
	<clipPath id="SVGID_00000170237351023434967360000007104871749361555854_">
		<use xlink:href="#SVGID_00000065769409403018699320000016907765859852532872_"  style="overflow:visible;"/>
	</clipPath>
	<g style="clip-path:url(#SVGID_00000170237351023434967360000007104871749361555854_);">
		<path class="st2" d="M678.1,537.2h2.7v801h-2.7V537.2z"/>
	</g>
</g>
<g>
	<defs>
		<rect id="SVGID_00000070093993584491784830000012619772474881273019_" x="562.7" y="537.2" width="4" height="801"/>
	</defs>
	<clipPath id="SVGID_00000127041191460341581070000017625552015071012751_">
		<use xlink:href="#SVGID_00000070093993584491784830000012619772474881273019_"  style="overflow:visible;"/>
	</clipPath>
	<g style="clip-path:url(#SVGID_00000127041191460341581070000017625552015071012751_);">
		<path class="st2" d="M563.8,537.2h2.7v801h-2.7V537.2z"/>
	</g>
</g>
<g>
	<defs>
		<rect id="SVGID_00000107570793017688201870000000727624994233713034_" x="448" y="537.2" width="4" height="801"/>
	</defs>
	<clipPath id="SVGID_00000027602329796847555940000009432970682321668775_">
		<use xlink:href="#SVGID_00000107570793017688201870000000727624994233713034_"  style="overflow:visible;"/>
	</clipPath>
	<g style="clip-path:url(#SVGID_00000027602329796847555940000009432970682321668775_);">
		<path class="st2" d="M449.3,537.2h2.7v801h-2.7V537.2z"/>
	</g>
</g>
<g>
	<defs>
		<rect id="SVGID_00000104675802047204089590000001587050976064220850_" x="334.7" y="537.2" width="4" height="801"/>
	</defs>
	<clipPath id="SVGID_00000096763631123122902160000014808166472290968497_">
		<use xlink:href="#SVGID_00000104675802047204089590000001587050976064220850_"  style="overflow:visible;"/>
	</clipPath>
	<g style="clip-path:url(#SVGID_00000096763631123122902160000014808166472290968497_);">
		<path class="st2" d="M334.7,537.2h2.7v801h-2.7V537.2z"/>
	</g>
</g>
<g>
	<defs>
		<rect id="SVGID_00000176041646349844282250000002885804739958298257_" x="278.9" y="1278.7" width="801" height="4"/>
	</defs>
	<clipPath id="SVGID_00000036969444097040728570000006217182128762061213_">
		<use xlink:href="#SVGID_00000176041646349844282250000002885804739958298257_"  style="overflow:visible;"/>
	</clipPath>
	<g style="clip-path:url(#SVGID_00000036969444097040728570000006217182128762061213_);">
		<path class="st2" d="M278.9,1279.5h801v2.7h-801V1279.5z"/>
	</g>
</g>
<g>
	<defs>
		<rect id="SVGID_00000083083387189471525250000008706156769159230604_" x="278.9" y="1164" width="801" height="4"/>
	</defs>
	<clipPath id="SVGID_00000065058950552813933780000010550781366974225814_">
		<use xlink:href="#SVGID_00000083083387189471525250000008706156769159230604_"  style="overflow:visible;"/>
	</clipPath>
	<g style="clip-path:url(#SVGID_00000065058950552813933780000010550781366974225814_);">
		<path class="st2" d="M278.9,1165.2h801v2.7h-801V1165.2z"/>
	</g>
</g>
<g>
	<defs>
		<rect id="SVGID_00000134954103988903813310000009535967131474992781_" x="278.9" y="1050.7" width="801" height="4"/>
	</defs>
	<clipPath id="SVGID_00000061470591055444109190000017654104518895596458_">
		<use xlink:href="#SVGID_00000134954103988903813310000009535967131474992781_"  style="overflow:visible;"/>
	</clipPath>
	<g style="clip-path:url(#SVGID_00000061470591055444109190000017654104518895596458_);">
		<path class="st2" d="M278.9,1050.9h801v2.7h-801V1050.9z"/>
	</g>
</g>
<g>
	<defs>
		<rect id="SVGID_00000119083020307895925810000005954180716590532528_" x="278.9" y="936" width="801" height="4"/>
	</defs>
	<clipPath id="SVGID_00000110463355743925607450000004167369370980153000_">
		<use xlink:href="#SVGID_00000119083020307895925810000005954180716590532528_"  style="overflow:visible;"/>
	</clipPath>
	<g style="clip-path:url(#SVGID_00000110463355743925607450000004167369370980153000_);">
		<path class="st2" d="M278.9,936.4h801v2.7h-801V936.4z"/>
	</g>
</g>
<g>
	<defs>
		<rect id="SVGID_00000085240860378419379620000016933598286469132955_" x="278.9" y="821.3" width="801" height="4"/>
	</defs>
	<clipPath id="SVGID_00000144300082980931251070000004041174702368118159_">
		<use xlink:href="#SVGID_00000085240860378419379620000016933598286469132955_"  style="overflow:visible;"/>
	</clipPath>
	<g style="clip-path:url(#SVGID_00000144300082980931251070000004041174702368118159_);">
		<path class="st2" d="M278.9,821.9h801v2.7h-801V821.9z"/>
	</g>
</g>
<g>
	<defs>
		<rect id="SVGID_00000179620353227348303520000013999014234694509721_" x="278.9" y="706.7" width="801" height="4"/>
	</defs>
	<clipPath id="SVGID_00000162322659856843990390000001160187238283126450_">
		<use xlink:href="#SVGID_00000179620353227348303520000013999014234694509721_"  style="overflow:visible;"/>
	</clipPath>
	<g style="clip-path:url(#SVGID_00000162322659856843990390000001160187238283126450_);">
		<path class="st2" d="M278.9,707.6h801v2.7h-801V707.6z"/>
	</g>
</g>
<g>
	<defs>
		<rect id="SVGID_00000121246801356867946120000016425992929387497110_" x="278.9" y="592" width="801" height="4"/>
	</defs>
	<clipPath id="SVGID_00000069371814214727037920000004750574255582002824_">
		<use xlink:href="#SVGID_00000121246801356867946120000016425992929387497110_"  style="overflow:visible;"/>
	</clipPath>
	<g style="clip-path:url(#SVGID_00000069371814214727037920000004750574255582002824_);">
		<path class="st2" d="M278.9,593h801v2.7h-801V593z"/>
	</g>
</g>
<g>
	<defs>
		<rect id="SVGID_00000173125601078948528390000001027837259747861648_" y="151.4" width="246.7" height="19"/>
	</defs>
	<clipPath id="SVGID_00000101787402481553996990000008969118937506958218_">
		<use xlink:href="#SVGID_00000173125601078948528390000001027837259747861648_"  style="overflow:visible;"/>
	</clipPath>
	<g style="clip-path:url(#SVGID_00000101787402481553996990000008969118937506958218_);">
		<path class="st2" d="M-158.7,160.9c0,5.3-4.2,9.5-9.4,9.5c-5.2,0-9.4-4.3-9.4-9.5c0-5.3,4.2-9.5,9.4-9.5
			C-162.9,151.4-158.7,155.6-158.7,160.9z M-110.4,151.4c-5.2,0-9.4,4.3-9.4,9.5c0,5.3,4.2,9.5,9.4,9.5c5.2,0,9.4-4.3,9.4-9.5
			C-100.9,155.6-105.2,151.4-110.4,151.4z M-52.6,151.4c-5.2,0-9.4,4.3-9.4,9.5c0,5.3,4.2,9.5,9.4,9.5c5.2,0,9.4-4.3,9.4-9.5
			C-43.2,155.6-47.4,151.4-52.6,151.4z M5.1,151.4c-5.2,0-9.4,4.3-9.4,9.5c0,5.3,4.2,9.5,9.4,9.5s9.4-4.3,9.4-9.5
			C14.6,155.6,10.3,151.4,5.1,151.4z M62.9,151.4c-5.2,0-9.4,4.3-9.4,9.5c0,5.3,4.2,9.5,9.4,9.5c5.2,0,9.4-4.3,9.4-9.5
			C72.3,155.6,68.1,151.4,62.9,151.4z M120.6,151.4c-5.2,0-9.4,4.3-9.4,9.5c0,5.3,4.2,9.5,9.4,9.5c5.2,0,9.4-4.3,9.4-9.5
			C130.1,155.6,125.8,151.4,120.6,151.4z M178.4,151.4c-5.2,0-9.4,4.3-9.4,9.5c0,5.3,4.2,9.5,9.4,9.5c5.2,0,9.4-4.3,9.4-9.5
			C187.8,155.6,183.6,151.4,178.4,151.4z M236.1,151.4c-5.2,0-9.4,4.3-9.4,9.5c0,5.3,4.2,9.5,9.4,9.5c5.2,0,9.4-4.3,9.4-9.5
			C245.6,155.6,241.3,151.4,236.1,151.4z"/>
	</g>
</g>
<g>
	<defs>
		<rect id="SVGID_00000025423233207328428920000011524562526727718800_" x="544" y="1608.8" width="424" height="19"/>
	</defs>
	<clipPath id="SVGID_00000018918790374887668400000001909089380529719988_">
		<use xlink:href="#SVGID_00000025423233207328428920000011524562526727718800_"  style="overflow:visible;"/>
	</clipPath>
	<g style="clip-path:url(#SVGID_00000018918790374887668400000001909089380529719988_);">
		<path class="st2" d="M563.3,1618.4c0,5.3-4.2,9.5-9.4,9.5c-5.2,0-9.4-4.3-9.4-9.5c0-5.3,4.2-9.5,9.4-9.5
			C559.1,1608.8,563.3,1613.1,563.3,1618.4z M611.6,1608.8c-5.2,0-9.4,4.3-9.4,9.5c0,5.3,4.2,9.5,9.4,9.5c5.2,0,9.4-4.3,9.4-9.5
			C621.1,1613.1,616.8,1608.8,611.6,1608.8z M669.4,1608.8c-5.2,0-9.4,4.3-9.4,9.5c0,5.3,4.2,9.5,9.4,9.5c5.2,0,9.4-4.3,9.4-9.5
			C678.8,1613.1,674.6,1608.8,669.4,1608.8z M727.1,1608.8c-5.2,0-9.4,4.3-9.4,9.5c0,5.3,4.2,9.5,9.4,9.5c5.2,0,9.4-4.3,9.4-9.5
			C736.6,1613.1,732.3,1608.8,727.1,1608.8z M784.9,1608.8c-5.2,0-9.4,4.3-9.4,9.5c0,5.3,4.2,9.5,9.4,9.5c5.2,0,9.4-4.3,9.4-9.5
			C794.3,1613.1,790.1,1608.8,784.9,1608.8z M842.6,1608.8c-5.2,0-9.4,4.3-9.4,9.5c0,5.3,4.2,9.5,9.4,9.5c5.2,0,9.4-4.3,9.4-9.5
			C852.1,1613.1,847.8,1608.8,842.6,1608.8z M900.4,1608.8c-5.2,0-9.4,4.3-9.4,9.5c0,5.3,4.2,9.5,9.4,9.5c5.2,0,9.4-4.3,9.4-9.5
			C909.8,1613.1,905.6,1608.8,900.4,1608.8z M958.1,1608.8c-5.2,0-9.4,4.3-9.4,9.5c0,5.3,4.2,9.5,9.4,9.5c5.2,0,9.4-4.3,9.4-9.5
			C967.6,1613.1,963.3,1608.8,958.1,1608.8z"/>
	</g>
</g>
<g>
	<defs>
		<rect id="SVGID_00000079456718711221162740000016079265253529183640_" x="1024" y="1608.8" width="56" height="19"/>
	</defs>
	<clipPath id="SVGID_00000103250906755047976590000006805254257614637723_">
		<use xlink:href="#SVGID_00000079456718711221162740000016079265253529183640_"  style="overflow:visible;"/>
	</clipPath>
	<g style="clip-path:url(#SVGID_00000103250906755047976590000006805254257614637723_);">
		<path class="st2" d="M1043.9,1618.4c0,5.3-4.2,9.5-9.4,9.5c-5.2,0-9.4-4.3-9.4-9.5c0-5.3,4.2-9.5,9.4-9.5
			C1039.6,1608.8,1043.9,1613.1,1043.9,1618.4z M1092.2,1608.8c-5.2,0-9.4,4.3-9.4,9.5c0,5.3,4.2,9.5,9.4,9.5c5.2,0,9.4-4.3,9.4-9.5
			C1101.6,1613.1,1097.4,1608.8,1092.2,1608.8z M1149.9,1608.8c-5.2,0-9.4,4.3-9.4,9.5c0,5.3,4.2,9.5,9.4,9.5c5.2,0,9.4-4.3,9.4-9.5
			C1159.4,1613.1,1155.1,1608.8,1149.9,1608.8z M1207.7,1608.8c-5.2,0-9.4,4.3-9.4,9.5c0,5.3,4.2,9.5,9.4,9.5c5.2,0,9.4-4.3,9.4-9.5
			C1217.1,1613.1,1212.9,1608.8,1207.7,1608.8z M1265.4,1608.8c-5.2,0-9.4,4.3-9.4,9.5c0,5.3,4.2,9.5,9.4,9.5c5.2,0,9.4-4.3,9.4-9.5
			C1274.9,1613.1,1270.6,1608.8,1265.4,1608.8z M1323.2,1608.8c-5.2,0-9.4,4.3-9.4,9.5c0,5.3,4.2,9.5,9.4,9.5s9.4-4.3,9.4-9.5
			C1332.6,1613.1,1328.4,1608.8,1323.2,1608.8z M1380.9,1608.8c-5.2,0-9.4,4.3-9.4,9.5c0,5.3,4.2,9.5,9.4,9.5c5.2,0,9.4-4.3,9.4-9.5
			C1390.4,1613.1,1386.1,1608.8,1380.9,1608.8z M1438.7,1608.8c-5.2,0-9.4,4.3-9.4,9.5c0,5.3,4.2,9.5,9.4,9.5c5.2,0,9.4-4.3,9.4-9.5
			C1448.1,1613.1,1443.9,1608.8,1438.7,1608.8z"/>
	</g>
</g>
</svg>
