<?xml version="1.0" encoding="UTF-8"?><svg id="Layer_1" xmlns="http://www.w3.org/2000/svg" xmlns:xlink="http://www.w3.org/1999/xlink" viewBox="0 0 1080 1920"><defs><style>.cls-1{fill:none;}.cls-2{clip-path:url(#clippath);}.cls-3{fill:#fff;}.cls-4{fill:#a765c5;}.cls-5{clip-path:url(#clippath-1);}.cls-6{clip-path:url(#clippath-4);}.cls-7{clip-path:url(#clippath-3);}.cls-8{clip-path:url(#clippath-2);}.cls-9{clip-path:url(#clippath-7);}.cls-10{clip-path:url(#clippath-8);}.cls-11{clip-path:url(#clippath-6);}.cls-12{clip-path:url(#clippath-5);}.cls-13{clip-path:url(#clippath-9);}.cls-14{clip-path:url(#clippath-14);}.cls-15{clip-path:url(#clippath-13);}.cls-16{clip-path:url(#clippath-12);}.cls-17{clip-path:url(#clippath-10);}.cls-18{clip-path:url(#clippath-15);}.cls-19{clip-path:url(#clippath-17);}.cls-20{clip-path:url(#clippath-16);}.cls-21{clip-path:url(#clippath-11);}.cls-22{clip-path:url(#clippath-18);}</style><clipPath id="clippath"><rect class="cls-1" x="698.73" y="110.67" width="381.27" height="262.67"/></clipPath><clipPath id="clippath-1"><rect class="cls-1" x="302.04" y="733.17" width="670" height="689"/></clipPath><clipPath id="clippath-2"><rect class="cls-1" x="1021.33" y="677.24" width="4" height="801"/></clipPath><clipPath id="clippath-3"><rect class="cls-1" x="906.67" y="677.24" width="4" height="801"/></clipPath><clipPath id="clippath-4"><rect class="cls-1" x="792" y="677.24" width="4" height="801"/></clipPath><clipPath id="clippath-5"><rect class="cls-1" x="677.33" y="677.24" width="4" height="801"/></clipPath><clipPath id="clippath-6"><rect class="cls-1" x="562.67" y="677.24" width="4" height="801"/></clipPath><clipPath id="clippath-7"><rect class="cls-1" x="448" y="677.24" width="4" height="801"/></clipPath><clipPath id="clippath-8"><rect class="cls-1" x="334.67" y="677.24" width="4" height="801"/></clipPath><clipPath id="clippath-9"><rect class="cls-1" x="278.92" y="1418.67" width="801" height="4"/></clipPath><clipPath id="clippath-10"><rect class="cls-1" x="278.92" y="1304" width="801" height="4"/></clipPath><clipPath id="clippath-11"><rect class="cls-1" x="278.92" y="1190.67" width="801" height="4"/></clipPath><clipPath id="clippath-12"><rect class="cls-1" x="278.92" y="1076" width="801" height="4"/></clipPath><clipPath id="clippath-13"><rect class="cls-1" x="278.92" y="961.33" width="801" height="4"/></clipPath><clipPath id="clippath-14"><rect class="cls-1" x="278.92" y="846.67" width="801" height="4"/></clipPath><clipPath id="clippath-15"><rect class="cls-1" x="278.92" y="732" width="801" height="4"/></clipPath><clipPath id="clippath-16"><rect class="cls-1" y="151.39" width="246.67" height="19"/></clipPath><clipPath id="clippath-17"><rect class="cls-1" x="544" y="1706.67" width="424" height="19"/></clipPath><clipPath id="clippath-18"><rect class="cls-1" x="1024" y="1706.67" width="56" height="19"/></clipPath></defs><g class="cls-2"><path class="cls-4" d="M997.11,171.24c-40.92,43.75-101.48,87.29-178.87,61.17-72.31-24.51-119.51,32-119.51,32v107.74s44.36-51.04,116.47-26.53c77.38,26.13,144.64-3.24,187.78-45.17,63.41-61.77,164.89-54.07,164.89-54.07V110.89s-112.43-2.64-170.77,60.35Z"/></g><path class="cls-3" d="M1183.68,152.61l-2.03-.2c-23.09,.2-46.19,2.83-68.67,7.7-42.34,9.52-75.35,25.72-97.84,48.4-40.52,40.91-82.85,61.57-125.59,61.57-14.99,0-29.78-2.43-43.96-7.09-11.75-3.85-23.9-5.67-36.26-5.67-51.05,0-82.65,34.43-83.86,35.84l-1.01,1.22v109.36l7.09-7.49c19.65-18.43,45.58-28.76,72.72-28.76,12.35,0,24.51,2.03,36.26,5.88,18.84,6.08,38.29,9.11,57.93,9.11,46.39,0,91.77-18.23,128.03-51.04,47.8-43.74,118.5-48.41,146.86-48.41,6.28,0,10.13,.2,10.13,.2l4.26,.2V152.61h-4.05Zm-84.88,136.3c0-1.02-.81-1.82-1.82-1.82s-1.82,.81-1.82,1.82c0,.41,0,.61,.2,.81-24.51,7.29-50.44,19.04-71.71,38.48-3.85,3.44-7.9,6.89-12.15,10.13-.2-.61-1.02-1.21-1.83-1.21-1.01,0-1.82,.81-1.82,1.82,0,.6,.2,1.01,.61,1.42-29.37,21.87-67.05,37.47-110.2,37.47-19.24,0-38.48-3.04-56.72-8.91-12.15-3.85-24.71-6.08-37.47-6.08-13.57,0-26.94,2.43-39.3,7.29-.41-.61-1.02-1.01-1.62-1.01-1.02,0-1.82,.81-1.82,1.82v.4c-11.95,5.06-23.09,12.35-32.82,21.47v-97.01s30.99-34.43,80.82-34.43c11.95,0,23.7,1.82,35.05,5.47,14.58,4.66,29.78,7.09,45.17,7.09h1.42v.2c0,1.02,.81,1.82,1.82,1.82s1.82-.81,1.82-1.82v-.2c51.45-1.82,93.18-32.2,123.36-62.78,52.27-52.66,148.89-54.68,163.88-54.68h2.03v120.71c-1.02,0-1.82,.81-1.82,1.82-1.83,0-4.66-.2-8.51-.2-14.99,.2-43.76,1.62-74.75,10.13Zm-364.62,15.19c-1.02,0-1.82-.81-1.82-1.82s.81-1.82,1.82-1.82,1.82,.81,1.82,1.82-.81,1.82-1.82,1.82Zm13.97,39.09c0,1.02-.81,1.82-1.82,1.82s-1.82-.81-1.82-1.82,.81-1.82,1.82-1.82c1.02-.2,1.82,.61,1.82,1.82Zm35.66-2.03c0,1.02-.81,1.82-1.82,1.82s-1.82-.81-1.82-1.82,.81-1.82,1.82-1.82,1.82,.81,1.82,1.82Zm-17.02-37.27c0,1.02-.81,1.82-1.82,1.82s-1.82-.81-1.82-1.82,.81-1.82,1.82-1.82,1.82,.81,1.82,1.82Zm18.84-34.83c0,1.02-.81,1.82-1.82,1.82s-1.82-.81-1.82-1.82,.81-1.82,1.82-1.82c1.01-.2,1.82,.81,1.82,1.82Zm22.69,39.09c0,1.01-.81,1.82-1.82,1.82s-1.82-.81-1.82-1.82,.81-1.82,1.82-1.82,1.82,.81,1.82,1.82Zm16.81-33.21c0,1.01-.81,1.82-1.82,1.82s-1.82-.81-1.82-1.82,.81-1.82,1.82-1.82,1.82,.81,1.82,1.82Zm37.27,27.14c-1.01,0-1.82-.81-1.82-1.82s.81-1.82,1.82-1.82,1.82,.81,1.82,1.82-.6,1.82-1.82,1.82Zm-40.92,57.11c0,1.02-.81,1.82-1.82,1.82s-1.82-.81-1.82-1.82,.81-1.82,1.82-1.82,1.82,.81,1.82,1.82Zm18.43-26.53c0,1.02-.81,1.82-1.82,1.82s-1.82-.81-1.82-1.82,.81-1.82,1.82-1.82c.81,0,1.82,.81,1.82,1.82Zm-101.89,50.03c0,1.01-.81,1.82-1.82,1.82s-1.82-.81-1.82-1.82,.81-1.82,1.82-1.82c.81,0,1.82,.81,1.82,1.82Zm128.22-25.52c0,1.02-.81,1.82-1.82,1.82s-1.82-.81-1.82-1.82,.81-1.82,1.82-1.82,1.82,.81,1.82,1.82Zm28.36,16c0,1.02-.81,1.82-1.82,1.82s-1.82-.81-1.82-1.82,.81-1.82,1.82-1.82,1.82,.81,1.82,1.82Zm31.8-76.76c0,1.01-.81,1.82-1.82,1.82s-1.82-.81-1.82-1.82,.81-1.82,1.82-1.82,1.82,.81,1.82,1.82Zm-35.65,22.28c-1.01,0-1.82-.81-1.82-1.82s.81-1.82,1.82-1.82,1.82,.81,1.82,1.82c.2,1.02-.81,1.82-1.82,1.82Zm52.47-49.62c0,1.02-.81,1.82-1.83,1.82s-1.82-.81-1.82-1.82,.81-1.82,1.82-1.82c1.02-.2,1.83,.81,1.83,1.82Zm-1.83,59.74c0,1.02-.81,1.82-1.82,1.82s-1.82-.81-1.82-1.82,.81-1.82,1.82-1.82,1.82,.81,1.82,1.82Zm36.67-30.58c-1.01,0-1.82-.81-1.82-1.82s.81-1.82,1.82-1.82,1.82,.81,1.82,1.82-.81,1.82-1.82,1.82Zm11.95-41.52c0,1.02-.81,1.82-1.82,1.82s-1.82-.81-1.82-1.82,.81-1.82,1.82-1.82,1.82,.61,1.82,1.82Zm-65.64,100.45c0,1.02-.81,1.82-1.82,1.82s-1.82-.81-1.82-1.82,.81-1.82,1.82-1.82,1.82,.81,1.82,1.82Zm43.35,3.04c0,1.01-.81,1.82-1.82,1.82s-1.82-.81-1.82-1.82,.81-1.82,1.82-1.82,1.82,.81,1.82,1.82Zm14.18-29.37c0,1.02-.81,1.82-1.82,1.82s-1.82-.81-1.82-1.82,.81-1.82,1.82-1.82c1.02-.2,1.82,.81,1.82,1.82Zm31.6-98.83c0,1.01-.81,1.82-1.82,1.82s-1.82-.81-1.82-1.82,.81-1.82,1.82-1.82,1.82,.81,1.82,1.82Zm13.98,24.71c0,1.02-.81,1.82-1.82,1.82s-1.82-.81-1.82-1.82,.81-1.82,1.82-1.82c1.01-.2,1.82,.61,1.82,1.82Zm54.49,10.33c0,1.02-.81,1.82-1.82,1.82s-1.82-.81-1.82-1.82,.81-1.82,1.82-1.82,1.82,.81,1.82,1.82Zm-37.68-70.68c0,1.02-.81,1.82-1.82,1.82s-1.82-.81-1.82-1.82,.81-1.82,1.82-1.82,1.82,.81,1.82,1.82Zm95.61-25.31c0,1.01-.81,1.82-1.82,1.82s-1.82-.81-1.82-1.82,.81-1.82,1.82-1.82,1.82,.81,1.82,1.82Zm-72.93,65.21c0,1.01-.81,1.82-1.82,1.82s-1.82-.81-1.82-1.82,.81-1.82,1.82-1.82,1.82,.81,1.82,1.82Zm22.48-34.03c0,1.01-.81,1.82-1.82,1.82s-1.82-.81-1.82-1.82,.81-1.82,1.82-1.82,1.82,.81,1.82,1.82Zm31.6,9.52c0,1.01-.81,1.82-1.82,1.82s-1.82-.81-1.82-1.82,.81-1.82,1.82-1.82,1.82,.81,1.82,1.82Zm-97.44,84.66c0,1.01-.81,1.82-1.82,1.82s-1.82-.81-1.82-1.82,.81-1.82,1.82-1.82,1.82,.81,1.82,1.82Zm93.59-33.82c0,1.01-.81,1.82-1.82,1.82s-1.82-.81-1.82-1.82,.81-1.82,1.82-1.82,1.82,.81,1.82,1.82Zm40.11,8.3c0,1.02-.81,1.82-1.82,1.82s-1.83-.81-1.83-1.82,.81-1.82,1.83-1.82,1.82,.81,1.82,1.82Zm-99.87,29.36c0,1.02-.81,1.82-1.82,1.82s-1.82-.81-1.82-1.82,.81-1.82,1.82-1.82,1.82,.81,1.82,1.82Zm53.68-132.85c0,1.01-.81,1.82-1.82,1.82s-1.82-.81-1.82-1.82,.81-1.82,1.82-1.82c1.01-.2,1.82,.6,1.82,1.82Zm58.95,79.19c0,1.01-.81,1.82-1.82,1.82s-1.82-.81-1.82-1.82,.81-1.82,1.82-1.82,1.82,.81,1.82,1.82Zm10.73-81.21c0,1.01-.81,1.82-1.82,1.82s-1.82-.81-1.82-1.82,.81-1.82,1.82-1.82,1.82,.81,1.82,1.82Zm-8.91,38.68c0,1.01-.81,1.82-1.82,1.82s-1.82-.81-1.82-1.82,.81-1.82,1.82-1.82,1.82,.81,1.82,1.82Z"/><rect class="cls-1" y="213.51" width="304" height="63"/><path class="cls-4" d="M416.06,311.01c-23.23,0-31.29-14.58-36.73-24.34-4.55-8.33-6.76-12.36-16.75-12.63-6.62,.26-8.31,2.73-12.85,10.93-5.71,10.41-14.41,26.03-40.76,26.03-23.23,0-31.42-14.58-36.73-24.34-4.68-8.33-6.75-12.36-16.75-12.63-6.62,.26-8.31,2.73-12.85,10.93-5.71,10.41-14.41,26.03-40.76,26.03-23.23,0-31.41-14.58-36.73-24.34-4.68-8.33-6.88-12.36-16.74-12.63-6.63,.26-8.31,2.73-12.85,10.93-5.71,10.41-14.41,26.03-40.76,26.03-23.23,0-31.41-14.58-36.73-24.34-4.55-8.33-6.75-12.23-16.74-12.63-6.62,.26-8.31,2.73-12.85,10.93-5.71,10.41-14.41,26.03-40.76,26.03v-26.03c11.17,0,13.24-3.91,18.17-12.63,4.94-8.98,12.2-22.13,31.68-24.08,.65-.26,1.56-.26,2.46-.26h2.6c.65,0,1.43,0,2.08,.13,22.58,1.82,30.64,16.14,35.95,25.91,4.81,8.72,6.36,10.93,14.02,10.93,11.04,0,13.24-3.91,18.05-12.63,4.93-8.98,12.2-22.13,31.67-24.08,.91-.13,1.69-.26,2.59-.26h2.6c.65,0,1.43,0,2.08,.13,22.71,1.69,30.64,16.14,36.08,25.91,4.81,8.72,6.36,10.93,14.02,10.93,11.17,0,13.24-3.91,18.04-12.63,4.94-8.98,12.2-22.13,31.68-24.08,.91-.13,1.69-.26,2.59-.26h2.47c.65,0,1.43,0,2.08,.13,22.71,1.69,30.64,16.14,36.08,25.91,4.81,8.72,6.36,10.93,14.02,10.93,11.04,0,13.24-3.91,18.04-12.63,4.94-8.98,12.33-22.13,31.68-24.08,.78-.13,1.69-.26,2.59-.26h2.6c.65,0,1.43,0,2.08,.13,22.97,1.82,30.89,16.14,36.34,25.91,4.8,8.72,6.36,10.93,14.02,10.93v26.03Z"/><g class="cls-5"><path class="cls-4" d="M302.05,733.17H972.04v689H302.05V733.17"/></g><g class="cls-8"><path class="cls-3" d="M1021.45,677.24h2.67v801h-2.67V677.24Z"/></g><g class="cls-7"><path class="cls-3" d="M906.91,677.24h2.67v801h-2.67V677.24Z"/></g><g class="cls-6"><path class="cls-3" d="M792.63,677.24h2.67v801h-2.67V677.24Z"/></g><g class="cls-12"><path class="cls-3" d="M678.08,677.24h2.67v801h-2.67V677.24Z"/></g><g class="cls-11"><path class="cls-3" d="M563.81,677.24h2.67v801h-2.67V677.24Z"/></g><g class="cls-9"><path class="cls-3" d="M449.27,677.24h2.67v801h-2.67V677.24Z"/></g><g class="cls-10"><path class="cls-3" d="M334.72,677.24h2.67v801h-2.67V677.24Z"/></g><g class="cls-13"><path class="cls-3" d="M278.92,1419.5h801v2.67H278.92v-2.67Z"/></g><g class="cls-17"><path class="cls-3" d="M278.92,1305.22h801v2.67H278.92v-2.67Z"/></g><g class="cls-21"><path class="cls-3" d="M278.92,1190.95h801v2.67H278.92v-2.67Z"/></g><g class="cls-16"><path class="cls-3" d="M278.92,1076.41h801v2.67H278.92v-2.67Z"/></g><g class="cls-15"><path class="cls-3" d="M278.92,961.86h801v2.67H278.92v-2.67Z"/></g><g class="cls-14"><path class="cls-3" d="M278.92,847.59h801v2.67H278.92v-2.67Z"/></g><g class="cls-18"><path class="cls-3" d="M278.92,733.05h801v2.67H278.92v-2.67Z"/></g><g class="cls-20"><path class="cls-3" d="M-158.69,160.91c0,5.26-4.22,9.52-9.44,9.52s-9.44-4.26-9.44-9.52,4.23-9.52,9.44-9.52,9.44,4.26,9.44,9.52Zm48.31-9.52c-5.22,0-9.45,4.26-9.45,9.52s4.23,9.52,9.45,9.52,9.44-4.26,9.44-9.52-4.23-9.52-9.44-9.52Zm57.74,0c-5.21,0-9.44,4.26-9.44,9.52s4.23,9.52,9.44,9.52,9.45-4.26,9.45-9.52-4.23-9.52-9.45-9.52Zm57.75,0c-5.21,0-9.44,4.26-9.44,9.52s4.23,9.52,9.44,9.52,9.44-4.26,9.44-9.52-4.23-9.52-9.44-9.52Zm57.75,0c-5.22,0-9.45,4.26-9.45,9.52s4.23,9.52,9.45,9.52,9.44-4.26,9.44-9.52-4.23-9.52-9.44-9.52Zm57.74,0c-5.21,0-9.44,4.26-9.44,9.52s4.23,9.52,9.44,9.52,9.45-4.26,9.45-9.52-4.23-9.52-9.45-9.52Zm57.75,0c-5.22,0-9.44,4.26-9.44,9.52s4.22,9.52,9.44,9.52,9.44-4.26,9.44-9.52-4.23-9.52-9.44-9.52Zm57.75,0c-5.22,0-9.45,4.26-9.45,9.52s4.23,9.52,9.45,9.52,9.44-4.26,9.44-9.52-4.23-9.52-9.44-9.52Z"/></g><g class="cls-19"><path class="cls-3" d="M563.31,1716.19c0,5.26-4.22,9.52-9.44,9.52s-9.44-4.27-9.44-9.52,4.23-9.53,9.44-9.53,9.44,4.27,9.44,9.53Zm48.31-9.53c-5.22,0-9.45,4.27-9.45,9.53s4.23,9.52,9.45,9.52,9.44-4.27,9.44-9.52-4.23-9.53-9.44-9.53Zm57.74,0c-5.21,0-9.44,4.27-9.44,9.53s4.23,9.52,9.44,9.52,9.45-4.27,9.45-9.52-4.23-9.53-9.45-9.53Zm57.75,0c-5.21,0-9.44,4.27-9.44,9.53s4.23,9.52,9.44,9.52,9.44-4.27,9.44-9.52-4.23-9.53-9.44-9.53Zm57.75,0c-5.22,0-9.45,4.27-9.45,9.53s4.23,9.52,9.45,9.52,9.44-4.27,9.44-9.52-4.23-9.53-9.44-9.53Zm57.74,0c-5.21,0-9.44,4.27-9.44,9.53s4.23,9.52,9.44,9.52,9.45-4.27,9.45-9.52-4.23-9.53-9.45-9.53Zm57.75,0c-5.22,0-9.44,4.27-9.44,9.53s4.22,9.52,9.44,9.52,9.44-4.27,9.44-9.52-4.23-9.53-9.44-9.53Zm57.75,0c-5.22,0-9.45,4.27-9.45,9.53s4.23,9.52,9.45,9.52,9.44-4.27,9.44-9.52-4.23-9.53-9.44-9.53Z"/></g><g class="cls-22"><path class="cls-3" d="M1043.86,1716.19c0,5.26-4.23,9.52-9.44,9.52s-9.44-4.27-9.44-9.52,4.22-9.53,9.44-9.53,9.44,4.27,9.44,9.53Zm48.3-9.53c-5.21,0-9.44,4.27-9.44,9.53s4.23,9.52,9.44,9.52,9.45-4.27,9.45-9.52-4.23-9.53-9.45-9.53Zm57.75,0c-5.21,0-9.44,4.27-9.44,9.53s4.23,9.52,9.44,9.52,9.44-4.27,9.44-9.52-4.22-9.53-9.44-9.53Zm57.75,0c-5.22,0-9.45,4.27-9.45,9.53s4.23,9.52,9.45,9.52,9.44-4.27,9.44-9.52-4.23-9.53-9.44-9.53Zm57.74,0c-5.21,0-9.44,4.27-9.44,9.53s4.23,9.52,9.44,9.52,9.45-4.27,9.45-9.52-4.23-9.53-9.45-9.53Zm57.75,0c-5.21,0-9.44,4.27-9.44,9.53s4.23,9.52,9.44,9.52,9.44-4.27,9.44-9.52-4.23-9.53-9.44-9.53Zm57.75,0c-5.22,0-9.45,4.27-9.45,9.53s4.23,9.52,9.45,9.52,9.44-4.27,9.44-9.52-4.23-9.53-9.44-9.53Zm57.74,0c-5.21,0-9.44,4.27-9.44,9.53s4.23,9.52,9.44,9.52,9.45-4.27,9.45-9.52-4.23-9.53-9.45-9.53Z"/></g></svg>